<svg width="260" height="260" viewBox="0 0 260 260" fill="none" xmlns="http://www.w3.org/2000/svg">
<rect width="260" height="260" fill="white"/>
<rect width="101" height="260" fill="#00A2FF"/>
<path d="M137.244 49C145.308 49 152.256 49.9 158.088 51.7C163.92 53.5 169.896 56.596 176.016 60.988L166.836 73.084C162.3 69.988 157.908 67.72 153.66 66.28C149.484 64.84 144.228 64.12 137.892 64.12C131.772 64.12 126.084 65.74 120.828 68.98C115.644 72.148 111.432 76.864 108.192 83.128C105.024 89.392 103.44 97.168 103.44 106.456C103.44 113.584 104.34 119.308 106.14 123.628C108.012 127.876 111.396 131.512 116.292 134.536C121.26 137.488 128.352 140.656 137.568 144.04C144.768 146.704 150.96 149.368 156.144 152.032C161.328 154.624 165.288 157.72 168.024 161.32C170.76 164.92 172.128 169.564 172.128 175.252C172.128 183.172 169.392 189.904 163.92 195.448C158.52 200.992 150.096 206.248 138.648 211.216L130.656 198.256C136.992 195.736 142.176 192.928 146.208 189.832C150.312 186.736 152.364 182.488 152.364 177.088C152.364 174.136 151.644 171.76 150.204 169.96C148.836 168.16 146.208 166.396 142.32 164.668C138.504 162.94 132.888 160.78 125.472 158.188C116.328 154.804 108.66 150.988 102.468 146.74C96.348 142.42 91.74 137.056 88.644 130.648C85.548 124.24 84 116.176 84 106.456C84 94.216 86.304 83.848 90.912 75.352C95.592 66.784 101.928 60.268 109.92 55.804C117.984 51.268 127.092 49 137.244 49Z" fill="black"/>
</svg>
