<svg width="888" height="302" viewBox="0 0 888 302" fill="none" xmlns="http://www.w3.org/2000/svg">
<path d="M369.079 82.48C372.775 82.48 376.119 82.876 379.111 83.668C382.103 84.372 385.095 85.428 388.087 86.836L382.939 99.244C379.067 97.484 375.327 96.604 371.719 96.604C368.815 96.604 366.703 97.396 365.383 98.98C364.151 100.476 363.535 102.852 363.535 106.108V201.28C363.535 209.2 361.335 215.14 356.935 219.1C352.535 223.06 346.683 225.04 339.379 225.04C335.771 225.04 332.559 224.644 329.743 223.852C326.927 223.148 324.067 222.092 321.163 220.684L326.443 208.276C330.315 210.036 333.923 210.916 337.267 210.916C339.907 210.916 341.843 210.168 343.075 208.672C344.395 207.264 345.055 205.02 345.055 201.94V106.768C345.055 98.936 347.079 92.952 351.127 88.816C355.263 84.592 361.247 82.48 369.079 82.48ZM413.781 123.928C419.501 123.928 424.077 125.512 427.509 128.68C431.029 131.848 433.449 136.644 434.769 143.068L437.145 126.04H453.381L444.669 161.944L448.233 176.86C448.761 178.884 449.553 180.468 450.609 181.612C451.753 182.668 453.293 183.416 455.229 183.856L449.157 198.112C445.197 197.584 441.941 196.308 439.389 194.284C436.925 192.172 435.297 189.312 434.505 185.704L433.581 180.292C431.381 186.1 428.521 190.544 425.001 193.624C421.481 196.616 417.081 198.112 411.801 198.112C403.617 198.112 397.149 194.988 392.397 188.74C387.733 182.492 385.401 173.428 385.401 161.548C385.401 154.156 386.501 147.644 388.701 142.012C390.901 136.292 394.113 131.848 398.337 128.68C402.649 125.512 407.797 123.928 413.781 123.928ZM416.025 137.788C412.417 137.788 409.601 139.812 407.577 143.86C405.553 147.82 404.541 153.716 404.541 161.548C404.541 176.684 408.193 184.252 415.497 184.252C418.753 184.252 421.569 182.536 423.945 179.104C426.409 175.584 428.433 169.292 430.017 160.228C428.433 151.78 426.585 145.928 424.473 142.672C422.361 139.416 419.545 137.788 416.025 137.788ZM420.714 202.6C425.202 203.04 428.546 204.36 430.746 206.56C432.946 208.848 434.046 211.752 434.046 215.272C434.046 219.672 432.33 223.192 428.898 225.832C425.378 228.56 420.802 229.924 415.17 229.924C412.266 229.924 409.626 229.572 407.25 228.868C404.786 228.164 402.718 227.24 401.046 226.096L405.402 217.12C408.13 218.616 410.946 219.364 413.85 219.364C418.074 219.364 420.186 217.956 420.186 215.14C420.186 213.468 419.262 212.236 417.414 211.444C415.478 210.74 412.354 210.388 408.042 210.388L410.154 193.888H420.714V202.6ZM434.658 93.58L441.522 101.5L423.042 117.868H411.426L392.946 101.5L399.942 93.58L417.234 104.536L434.658 93.58ZM487.523 196H467.987V110.068L481.847 102.808H487.523V196ZM481.847 190.324V109.276L473.663 113.5V190.324H481.847ZM536.927 140.164V173.56C536.927 176.728 537.323 179.104 538.115 180.688C538.995 182.184 540.535 183.46 542.735 184.516L537.191 198.112C530.679 196.88 525.883 194.592 522.803 191.248C519.723 187.816 518.183 182.756 518.183 176.068V140.164H511.187C507.843 140.252 505.423 140.384 503.927 140.56C502.431 140.736 500.671 141.132 498.647 141.748L495.347 128.812C497.811 127.756 500.275 127.052 502.739 126.7C505.203 126.26 508.591 126.04 512.903 126.04H558.839V140.164H536.927ZM512.002 91.456C514.818 91.456 517.194 92.424 519.13 94.36C520.978 96.208 521.902 98.496 521.902 101.224C521.902 103.952 520.978 106.284 519.13 108.22C517.194 110.068 514.818 110.992 512.002 110.992C509.274 110.992 506.942 110.068 505.006 108.22C503.07 106.284 502.102 103.952 502.102 101.224C502.102 98.496 503.07 96.208 505.006 94.36C506.942 92.424 509.274 91.456 512.002 91.456ZM541.834 91.456C544.65 91.456 547.026 92.424 548.962 94.36C550.898 96.208 551.866 98.496 551.866 101.224C551.866 103.952 550.898 106.284 548.962 108.22C547.026 110.068 544.65 110.992 541.834 110.992C539.106 110.992 536.818 110.068 534.97 108.22C533.034 106.284 532.066 103.952 532.066 101.224C532.066 98.496 533.034 96.208 534.97 94.36C536.818 92.424 539.106 91.456 541.834 91.456Z" fill="black"/>
</svg>
