<svg width="260" height="260" viewBox="0 0 260 260" fill="none" xmlns="http://www.w3.org/2000/svg">
<path d="M60.3495 62.92C63.9335 62.92 67.1762 63.304 70.0775 64.072C72.9788 64.7547 75.8802 65.7787 78.7815 67.144L73.7895 79.176C70.0348 77.4693 66.4082 76.616 62.9095 76.616C60.0935 76.616 58.0455 77.384 56.7655 78.92C55.5708 80.3707 54.9735 82.6747 54.9735 85.832V178.12C54.9735 185.8 52.8402 191.56 48.5735 195.4C44.3068 199.24 38.6322 201.16 31.5495 201.16C28.0508 201.16 24.9362 200.776 22.2055 200.008C19.4748 199.325 16.7015 198.301 13.8855 196.936L19.0055 184.904C22.7602 186.611 26.2588 187.464 29.5015 187.464C32.0615 187.464 33.9388 186.739 35.1335 185.288C36.4135 183.923 37.0535 181.747 37.0535 178.76V86.472C37.0535 78.8773 39.0162 73.0747 42.9415 69.064C46.9522 64.968 52.7548 62.92 60.3495 62.92ZM103.697 103.112C109.243 103.112 113.681 104.648 117.009 107.72C120.422 110.792 122.769 115.443 124.049 121.672L126.353 105.16H142.097L133.649 139.976L137.104 154.44C137.617 156.403 138.385 157.939 139.409 159.048C140.518 160.072 142.011 160.797 143.889 161.224L138.001 175.048C134.161 174.536 131.003 173.299 128.529 171.336C126.139 169.288 124.561 166.515 123.793 163.016L122.897 157.768C120.763 163.4 117.99 167.709 114.577 170.696C111.163 173.597 106.897 175.048 101.777 175.048C93.8405 175.048 87.5685 172.019 82.9605 165.96C78.4378 159.901 76.1765 151.112 76.1765 139.592C76.1765 132.424 77.2432 126.109 79.3765 120.648C81.5098 115.101 84.6245 110.792 88.7205 107.72C92.9018 104.648 97.8938 103.112 103.697 103.112ZM105.873 116.552C102.374 116.552 99.6432 118.515 97.6805 122.44C95.7178 126.28 94.7365 131.997 94.7365 139.592C94.7365 154.269 98.2778 161.608 105.361 161.608C108.518 161.608 111.249 159.944 113.553 156.616C115.942 153.203 117.905 147.101 119.441 138.312C117.905 130.12 116.113 124.445 114.065 121.288C112.017 118.131 109.286 116.552 105.873 116.552ZM110.419 179.4C114.771 179.827 118.014 181.107 120.147 183.24C122.281 185.459 123.347 188.275 123.347 191.688C123.347 195.955 121.683 199.368 118.355 201.928C114.942 204.573 110.505 205.896 105.043 205.896C102.227 205.896 99.6675 205.555 97.3635 204.872C94.9742 204.189 92.9688 203.293 91.3475 202.184L95.5715 193.48C98.2168 194.931 100.947 195.656 103.763 195.656C107.859 195.656 109.907 194.291 109.907 191.56C109.907 189.939 109.011 188.744 107.219 187.976C105.342 187.293 102.313 186.952 98.1315 186.952L100.179 170.952H110.419V179.4ZM123.941 74.32L130.597 82L112.677 97.872H101.413L83.4935 82L90.2775 74.32L107.045 84.944L123.941 74.32ZM175.205 173H156.26V89.672L169.701 82.632H175.205V173ZM169.701 167.496V88.904L161.765 93V167.496H169.701ZM223.112 118.856V151.24C223.112 154.312 223.496 156.616 224.264 158.152C225.117 159.603 226.61 160.84 228.744 161.864L223.368 175.048C217.053 173.853 212.402 171.635 209.416 168.392C206.429 165.064 204.936 160.157 204.936 153.672V118.856H198.152C194.909 118.941 192.562 119.069 191.112 119.24C189.661 119.411 187.954 119.795 185.992 120.392L182.791 107.848C185.181 106.824 187.57 106.141 189.96 105.8C192.349 105.373 195.634 105.16 199.816 105.16H244.36V118.856H223.112ZM198.941 71.624C201.672 71.624 203.976 72.5627 205.853 74.44C207.645 76.232 208.542 78.4507 208.542 81.096C208.542 83.7413 207.645 86.0027 205.853 87.88C203.976 89.672 201.672 90.568 198.941 90.568C196.296 90.568 194.035 89.672 192.157 87.88C190.28 86.0027 189.341 83.7413 189.341 81.096C189.341 78.4507 190.28 76.232 192.157 74.44C194.035 72.5627 196.296 71.624 198.941 71.624ZM227.869 71.624C230.6 71.624 232.904 72.5627 234.781 74.44C236.659 76.232 237.597 78.4507 237.597 81.096C237.597 83.7413 236.659 86.0027 234.781 87.88C232.904 89.672 230.6 90.568 227.869 90.568C225.224 90.568 223.005 89.672 221.213 87.88C219.336 86.0027 218.397 83.7413 218.397 81.096C218.397 78.4507 219.336 76.232 221.213 74.44C223.005 72.5627 225.224 71.624 227.869 71.624Z" fill="black"/>
</svg>
