<svg width="260" height="260" viewBox="0 0 260 260" fill="none" xmlns="http://www.w3.org/2000/svg">
<path d="M132.244 49C140.308 49 147.256 49.9 153.088 51.7C158.92 53.5 164.896 56.596 171.016 60.988L161.836 73.084C157.3 69.988 152.908 67.72 148.66 66.28C144.484 64.84 139.228 64.12 132.892 64.12C126.772 64.12 121.084 65.74 115.828 68.98C110.644 72.148 106.432 76.864 103.192 83.128C100.024 89.392 98.44 97.168 98.44 106.456C98.44 113.584 99.34 119.308 101.14 123.628C103.012 127.876 106.396 131.512 111.292 134.536C116.26 137.488 123.352 140.656 132.568 144.04C139.768 146.704 145.96 149.368 151.144 152.032C156.328 154.624 160.288 157.72 163.024 161.32C165.76 164.92 167.128 169.564 167.128 175.252C167.128 183.172 164.392 189.904 158.92 195.448C153.52 200.992 145.096 206.248 133.648 211.216L125.656 198.256C131.992 195.736 137.176 192.928 141.208 189.832C145.312 186.736 147.364 182.488 147.364 177.088C147.364 174.136 146.644 171.76 145.204 169.96C143.836 168.16 141.208 166.396 137.32 164.668C133.504 162.94 127.888 160.78 120.472 158.188C111.328 154.804 103.66 150.988 97.468 146.74C91.348 142.42 86.74 137.056 83.644 130.648C80.548 124.24 79 116.176 79 106.456C79 94.216 81.304 83.848 85.912 75.352C90.592 66.784 96.928 60.268 104.92 55.804C112.984 51.268 122.092 49 132.244 49Z" fill="black"/>
</svg>
